<?xml version="1.0" encoding="UTF-8"?><svg viewBox="0 0 86 128" xmlns="http://www.w3.org/2000/svg" xmlns:xlink="http://www.w3.org/1999/xlink"><style>:root>svg{display:none}:root>svg:target{display:block}</style><svg viewBox="0 0 32 35" id="css" xmlns="http://www.w3.org/2000/svg"><path d="m.348 0 2.847 31.488L15.98 35l12.825-3.523L31.652 0Zm25.386 7.215-.949 10.488.004.059-.004.129-.676 7.332-.07.656L16 28.066l-.008.004-8.02-2.199-.546-6.066h3.933l.282 3.086L16 24.055l4.375-1.18.46-5.023h-9.144l-.078-.848-.18-1.988-.09-1.067h9.845l.359-3.906h-15l-.078-.848-.18-1.992-.094-1.066h19.633Zm0 0"/></svg><svg viewBox="0 0 86 128" id="figma" xmlns="http://www.w3.org/2000/svg"><path d="M21.5 129c11.9 0 21.5-9.6 21.5-21.5V86H21.5C9.6 86 0 95.6 0 107.5S9.6 129 21.5 129ZM0 64.5C0 52.6 9.6 43 21.5 43H43v43H21.5C9.6 86 0 76.4 0 64.5Zm0-43C0 9.6 9.6 0 21.5 0H43v43H21.5C9.6 43 0 33.4 0 21.5ZM43 0h21.5C76.4 0 86 9.6 86 21.5S76.4 43 64.5 43H43V0Zm43 64.5C86 76.4 76.4 86 64.5 86S43 76.4 43 64.5 52.6 43 64.5 43 86 52.6 86 64.5Z"/></svg><svg viewBox="0 0 36 36" id="github" xmlns="http://www.w3.org/2000/svg"><path d="M18 0C8.055 0 0 8.055 0 18c0 7.965 5.152 14.691 12.309 17.078.898.156 1.238-.383 1.238-.855 0-.426-.024-1.844-.024-3.352-4.523.832-5.695-1.105-6.054-2.117-.203-.516-1.078-2.113-1.844-2.543-.629-.336-1.531-1.168-.023-1.191 1.418-.024 2.43 1.304 2.77 1.843 1.616 2.723 4.206 1.961 5.241 1.489.157-1.172.63-1.961 1.149-2.41-4.008-.45-8.192-2-8.192-8.887 0-1.957.696-3.578 1.844-4.836-.18-.453-.809-2.297.18-4.77 0 0 1.508-.472 4.953 1.844a16.634 16.634 0 0 1 4.5-.61c1.527 0 3.058.204 4.5.61 3.441-2.34 4.95-1.844 4.95-1.844.987 2.473.358 4.317.179 4.77 1.148 1.258 1.844 2.855 1.844 4.836 0 6.906-4.207 8.437-8.211 8.886.652.563 1.214 1.645 1.214 3.332 0 2.407-.023 4.34-.023 4.95 0 .472.336 1.035 1.238.855A18.028 18.028 0 0 0 36 18c0-9.945-8.055-18-18-18Zm0 0"/></svg><svg viewBox="0 0 36 36" id="html" xmlns="http://www.w3.org/2000/svg"><path d="m2.129 0 2.89 32.398L17.98 36l13-3.605L33.875 0Zm25.457 10.598H12.379l.363 4.07h14.485l-1.094 12.2-8.153 2.257-8.14-2.258-.555-6.242h3.988l.286 3.172 4.425 1.195.008-.004 4.43-1.195.457-5.152H9.109L8.035 6.625h19.906Zm0 0"/></svg><svg viewBox="0 0 32 32" id="instagram" xmlns="http://www.w3.org/2000/svg"><path d="M9.281 0H22.72C27.839 0 32 4.16 32 9.281V22.72c0 2.46-.977 4.824-2.719 6.562A9.271 9.271 0 0 1 22.72 32H9.28C4.161 32 0 27.84 0 22.719V9.28c0-2.46.977-4.824 2.719-6.562A9.271 9.271 0 0 1 9.28 0Zm-.32 3.2a5.776 5.776 0 0 0-4.074 1.687A5.776 5.776 0 0 0 3.199 8.96v14.078A5.76 5.76 0 0 0 8.961 28.8h14.078c1.527 0 2.992-.61 4.074-1.688a5.776 5.776 0 0 0 1.688-4.074V8.961a5.76 5.76 0 0 0-5.762-5.762Zm15.437 2.402a1.999 1.999 0 0 1 1.415 3.414 1.999 1.999 0 1 1-2.829-2.829 2.005 2.005 0 0 1 1.414-.585ZM16 8a8.001 8.001 0 0 1 0 16 8.001 8.001 0 0 1 0-16Zm0 3.2a4.812 4.812 0 0 0-3.395 1.405A4.812 4.812 0 0 0 11.2 16c0 1.273.508 2.492 1.406 3.395A4.812 4.812 0 0 0 16 20.8a4.812 4.812 0 0 0 3.395-1.406A4.812 4.812 0 0 0 20.8 16a4.812 4.812 0 0 0-1.406-3.395A4.812 4.812 0 0 0 16 11.2Zm0 0"/></svg><svg viewBox="0 0 22 20" id="jquery" xmlns="http://www.w3.org/2000/svg"><path d="M20.88 8.41a5.005 5.005 0 0 1-7.04-.62c-1.78-2.12-1.5-5.29.61-7.04l.51-.38A5.024 5.024 0 0 0 14.8 7c1.63 1.94 4.45 2.32 6.54.97l-.46.44ZM19.1 12.5a7.484 7.484 0 0 1-8.28.914 7.48 7.48 0 0 1-2.28-1.834C5.87 8.41 6.29 3.68 9.46 1l.92-.64a7.494 7.494 0 0 0-.12 9.78c2.42 2.86 6.54 3.49 9.65 1.58l-.81.78Zm-1.13 4.88c-4.44 3.73-11.07 3.15-14.8-1.3C-.55 11.64.03 5 4.47 1.29L5.58.5c-3.51 3.8-3.73 9.73-.3 13.82 3.43 4.08 9.31 4.9 13.68 2.11l-.99.95Z"/></svg><svg viewBox="0 0 36 36" id="js" xmlns="http://www.w3.org/2000/svg"><path d="M0 0h36v36H0Zm33.05 27.418c-.26-1.648-1.335-3.027-4.503-4.313-1.102-.515-2.332-.878-2.695-1.71-.137-.497-.16-.762-.07-1.06.226-.972 1.37-1.257 2.273-.987.586.18 1.125.625 1.465 1.347 1.55-1.011 1.55-1.011 2.628-1.687-.402-.625-.601-.903-.875-1.164-.945-1.063-2.203-1.602-4.25-1.555l-1.062.137c-1.012.246-1.977.785-2.563 1.504-1.707 1.937-1.214 5.312.852 6.71 2.047 1.528 5.04 1.864 5.426 3.305.36 1.758-1.305 2.32-2.953 2.117-1.211-.269-1.887-.878-2.63-2.003l-2.741 1.574c.308.722.671 1.031 1.21 1.664 2.61 2.633 9.137 2.496 10.305-1.504.043-.137.36-1.063.113-2.473ZM19.575 16.547h-3.367c0 2.906-.02 5.793-.02 8.707 0 1.848.094 3.547-.203 4.066-.5 1.032-1.77.903-2.351.723-.59-.293-.895-.7-1.242-1.285-.098-.156-.168-.293-.192-.293l-2.738 1.687c.457.946 1.125 1.758 1.988 2.274 1.285.77 3.008 1.015 4.809.61 1.176-.34 2.187-1.036 2.715-2.114.765-1.395.601-3.106.597-5.024.016-3.082 0-6.164 0-9.27Zm0 0"/></svg><svg viewBox="0 0 41 33" id="mail" xmlns="http://www.w3.org/2000/svg"><path d="M.667 32.334v-32h40v32h-40Zm20-14-16-10v20h32v-20l-16 10Zm0-4 16-10h-32l16 10Z"/></svg><svg viewBox="0 0 46 36" id="sass" xmlns="http://www.w3.org/2000/svg"><path d="M21.695 26.129c-.023.043-.043.078 0 0Zm17.907-6.262c-1.45 0-2.875.332-4.172.973-.422-.86-.86-1.606-.934-2.168-.086-.656-.18-1.043-.078-1.824.102-.778.555-1.88.547-1.957-.008-.079-.102-.477-1.028-.48-.93-.009-1.726.179-1.82.421-.164.45-.289.91-.379 1.375-.168.844-1.855 3.855-2.808 5.422-.317-.61-.582-1.152-.64-1.582-.087-.656-.18-1.043-.08-1.82.099-.782.552-1.883.544-1.961-.004-.078-.098-.473-1.024-.48-.925-.009-1.726.179-1.82.421-.094.246-.191.824-.379 1.375-.187.555-2.437 5.566-3.027 6.871-.3.66-.559 1.195-.746 1.555-.028.058-.051.094-.067.12.024-.034.04-.07.04-.054-.16.309-.254.48-.254.48v.009c-.122.23-.258.437-.325.437-.043 0-.132-.602.024-1.43.336-1.742 1.137-4.453 1.129-4.543-.008-.05.152-.52-.524-.773-.656-.238-.894.16-.949.16-.059 0-.102.145-.102.145s.727-3.055-1.394-3.055c-1.324 0-3.164 1.457-4.066 2.773-.567.309-1.797.977-3.09 1.692l-1.489.82c-.035-.035-.066-.07-.101-.11-2.574-2.75-7.324-4.69-7.121-8.386.07-1.348.539-4.883 9.133-9.172 7.043-3.516 12.675-2.55 13.644-.402 1.395 3.058-3.012 8.754-10.324 9.574-2.79.309-4.254-.77-4.621-1.172-.38-.426-.438-.45-.582-.367-.239.129-.086.504 0 .726.215.567 1.113 1.575 2.644 2.082 1.344.438 4.614.684 8.567-.851 4.441-1.715 7.898-6.488 6.883-10.484-1.032-4.059-7.754-5.391-14.11-3.13C10.914 2.442 6.82 4.56 3.875 7.318c-3.5 3.285-4.059 6.14-3.832 7.335.82 4.243 6.656 7.008 8.992 9.051l-.324.18c-1.172.586-5.621 2.918-6.734 5.379-1.258 2.793.207 4.797 1.171 5.07 3.004.836 6.079-.672 7.73-3.14 1.653-2.47 1.454-5.696.692-7.165-.008-.02-.023-.035-.03-.058.862-.512 1.733-1.008 2.608-1.496-.285.777-.496 1.715-.601 3.066-.129 1.586.523 3.637 1.371 4.441.375.356.824.364 1.105.364.993 0 1.438-.824 1.934-1.801.613-1.195 1.152-2.586 1.152-2.586s-.675 3.758 1.172 3.758c.676 0 1.352-.871 1.653-1.317v.008s.015-.031.05-.086c.07-.11.106-.175.106-.175v-.02c.273-.469.87-1.543 1.77-3.313 1.163-2.289 2.277-5.148 2.277-5.148.11.629.258 1.25.445 1.86.203.683.625 1.43.965 2.16-.274.37-.442.59-.442.59 0 .003.004.007.008.011-.215.29-.46.598-.71.902-.919 1.094-2.012 2.348-2.157 2.708-.172.425-.129.742.203.984.242.187.676.219 1.125.183.828-.058 1.41-.261 1.692-.39a6.072 6.072 0 0 0 1.453-.762c.898-.664 1.441-1.613 1.39-2.867-.027-.691-.25-1.383-.523-2.031l.246-.36a39.055 39.055 0 0 0 2.523-4.363c.106.625.254 1.246.446 1.856.172.585.508 1.226.816 1.851-1.336 1.086-2.16 2.348-2.449 3.176-.531 1.531-.113 2.223.668 2.383.355.07.855-.094 1.23-.254a5.665 5.665 0 0 0 1.551-.797c.899-.664 1.77-1.594 1.711-2.852-.023-.57-.18-1.136-.39-1.683 1.128-.477 2.597-.735 4.464-.52 4.004.469 4.785 2.973 4.633 4.016-.148 1.047-.988 1.629-1.27 1.8-.28.172-.367.239-.347.368.039.187.168.18.402.137.332-.06 2.102-.848 2.18-2.786.113-2.449-2.234-5.14-6.398-5.12ZM8.754 30.285C7.43 31.73 5.578 32.277 4.78 31.816c-.855-.496-.52-2.625 1.11-4.168.992-.937 2.273-1.8 3.12-2.332.196-.117.473-.289.821-.496a.622.622 0 0 1 .086-.05c.062-.043.137-.082.207-.125.598 2.19.023 4.12-1.371 5.64Zm9.656-6.582c-.46 1.133-1.43 4.012-2.02 3.86-.503-.13-.812-2.325-.1-4.485.358-1.086 1.12-2.383 1.573-2.887.727-.816 1.524-1.074 1.711-.75.25.426-.875 3.559-1.164 4.262Zm7.977 3.817c-.192.101-.371.164-.457.117-.067-.04.078-.176.078-.176s1-1.07 1.394-1.563c.23-.285.496-.625.782-1 0 .036.007.075.007.118-.007 1.289-1.242 2.16-1.804 2.504Zm6.152-1.403c-.14-.101-.121-.441.36-1.492.187-.41.62-1.102 1.367-1.762.086.25.132.512.136.778-.007 1.617-1.164 2.222-1.863 2.476Zm0 0"/></svg><svg viewBox="0 0 36 32" id="telegram" xmlns="http://www.w3.org/2000/svg"><path d="M35.5.352a1.46 1.46 0 0 0-.695-.332 1.471 1.471 0 0 0-.77.078L1.61 12.789a2.27 2.27 0 0 0-1.441 2.324A2.269 2.269 0 0 0 2 17.141l8.398 1.652v9.367c0 .512.153 1.008.438 1.434.285.422.691.75 1.164.937a2.5 2.5 0 0 0 1.492.133c.5-.105.957-.36 1.309-.727l4.05-4.203 6.43 5.625c.461.41 1.059.641 1.68.641a2.592 2.592 0 0 0 1.902-.828c.301-.328.508-.727.606-1.16l6.496-28.25a1.469 1.469 0 0 0-.04-.77 1.376 1.376 0 0 0-.425-.64Zm-9.781 5.757L11.383 16.375 3.449 14.82ZM12.96 28.16v-7.598l3.965 3.481Zm14.004 1.281L13.735 17.84 32.776 4.195Zm0 0"/></svg></svg>