<?xml version="1.0" encoding="UTF-8"?>
<svg xmlns="http://www.w3.org/2000/svg" xmlns:xlink="http://www.w3.org/1999/xlink" width="px" height="36px" viewBox="0 0 32 35" version="1.1">
<g id="surface1">
<path style="fill:#ffffff" d="M 0.347656 0 L 3.195312 31.488281 L 15.980469 35 L 28.804688 31.476562 L 31.652344 0 Z M 25.734375 7.214844 L 24.785156 17.703125 L 24.789062 17.761719 L 24.785156 17.890625 L 24.109375 25.222656 L 24.039062 25.878906 L 16 28.066406 L 15.992188 28.070312 L 7.972656 25.871094 L 7.425781 19.804688 L 11.359375 19.804688 L 11.640625 22.890625 L 16 24.054688 L 20.375 22.875 L 20.835938 17.851562 L 11.691406 17.851562 L 11.613281 17.003906 L 11.433594 15.015625 L 11.34375 13.949219 L 21.1875 13.949219 L 21.546875 10.042969 L 6.546875 10.042969 L 6.46875 9.195312 L 6.289062 7.203125 L 6.195312 6.136719 L 25.828125 6.136719 Z M 25.734375 7.214844 "/>
</g>
</svg>
