<?xml version="1.0" encoding="UTF-8"?>
<svg xmlns="http://www.w3.org/2000/svg" xmlns:xlink="http://www.w3.org/1999/xlink" width="px" height="36px" viewBox="0 0 36 36" version="1.1">
<g id="surface1">
<path style="fill:#ffffff" d="M 18 0 C 8.054688 0 0 8.054688 0 18 C 0 25.964844 5.152344 32.691406 12.308594 35.078125 C 13.207031 35.234375 13.546875 34.695312 13.546875 34.222656 C 13.546875 33.796875 13.523438 32.378906 13.523438 30.871094 C 9 31.703125 7.828125 29.765625 7.46875 28.753906 C 7.265625 28.238281 6.390625 26.640625 5.625 26.210938 C 4.996094 25.875 4.09375 25.042969 5.601562 25.019531 C 7.019531 24.996094 8.03125 26.324219 8.371094 26.863281 C 9.988281 29.585938 12.578125 28.824219 13.613281 28.351562 C 13.769531 27.179688 14.242188 26.390625 14.761719 25.941406 C 10.753906 25.492188 6.570312 23.941406 6.570312 17.054688 C 6.570312 15.097656 7.265625 13.476562 8.414062 12.21875 C 8.234375 11.765625 7.605469 9.921875 8.59375 7.449219 C 8.59375 7.449219 10.101562 6.976562 13.546875 9.292969 C 14.984375 8.886719 16.515625 8.683594 18.046875 8.683594 C 19.574219 8.683594 21.105469 8.886719 22.546875 9.292969 C 25.988281 6.953125 27.496094 7.449219 27.496094 7.449219 C 28.484375 9.921875 27.855469 11.765625 27.675781 12.21875 C 28.824219 13.476562 29.519531 15.074219 29.519531 17.054688 C 29.519531 23.960938 25.3125 25.492188 21.308594 25.941406 C 21.960938 26.503906 22.523438 27.585938 22.523438 29.273438 C 22.523438 31.679688 22.5 33.613281 22.5 34.222656 C 22.5 34.695312 22.835938 35.257812 23.738281 35.078125 C 27.3125 33.871094 30.414062 31.574219 32.617188 28.511719 C 34.816406 25.449219 36 21.769531 36 18 C 36 8.054688 27.945312 0 18 0 Z M 18 0 "/>
</g>
</svg>
