<svg xmlns="http://www.w3.org/2000/svg" width="px" height="36" viewBox="0 0 36 36">
    <path style="fill:#fff" d="M18 0C8.055 0 0 8.055 0 18c0 7.965 5.152 14.691 12.309 17.078.898.156 1.238-.383 1.238-.855 0-.426-.024-1.844-.024-3.352-4.523.832-5.695-1.105-6.054-2.117-.203-.516-1.078-2.113-1.844-2.543-.629-.336-1.531-1.168-.023-1.191 1.418-.024 2.43 1.304 2.77 1.843 1.616 2.723 4.206 1.961 5.241 1.489.157-1.172.63-1.961 1.149-2.41-4.008-.45-8.192-2-8.192-8.887 0-1.957.696-3.578 1.844-4.836-.18-.453-.809-2.297.18-4.77 0 0 1.508-.472 4.953 1.844a16.634 16.634 0 0 1 4.5-.61c1.527 0 3.058.204 4.5.61 3.441-2.34 4.95-1.844 4.95-1.844.987 2.473.358 4.317.179 4.77 1.148 1.258 1.844 2.855 1.844 4.836 0 6.906-4.207 8.437-8.211 8.886.652.563 1.214 1.645 1.214 3.332 0 2.407-.023 4.34-.023 4.95 0 .472.336 1.035 1.238.855A18.028 18.028 0 0 0 36 18c0-9.945-8.055-18-18-18Zm0 0"/>
</svg>
