<svg xmlns="http://www.w3.org/2000/svg" width="32" height="32">
    <path style="stroke:none;fill-rule:nonzero;fill:#000;fill-opacity:1" d="M9.281 0H22.72C27.839 0 32 4.16 32 9.281V22.72c0 2.46-.977 4.824-2.719 6.562A9.271 9.271 0 0 1 22.72 32H9.28C4.161 32 0 27.84 0 22.719V9.28c0-2.46.977-4.824 2.719-6.562A9.271 9.271 0 0 1 9.28 0Zm-.32 3.2c-1.527 0-2.992.609-4.074 1.687A5.776 5.776 0 0 0 3.199 8.96v14.078a5.76 5.76 0 0 0 5.762 5.762h14.078c1.527 0 2.992-.61 4.074-1.688a5.776 5.776 0 0 0 1.688-4.074V8.961a5.76 5.76 0 0 0-5.762-5.762Zm15.437 2.402a1.999 1.999 0 0 1 1.415 3.414 1.999 1.999 0 1 1-2.829-2.829 2.005 2.005 0 0 1 1.414-.585ZM16 8a8.001 8.001 0 0 1 0 16 8.001 8.001 0 0 1 0-16Zm0 3.2a4.812 4.812 0 0 0-3.395 1.405A4.812 4.812 0 0 0 11.2 16c0 1.273.508 2.492 1.406 3.395A4.812 4.812 0 0 0 16 20.8a4.812 4.812 0 0 0 3.395-1.406A4.812 4.812 0 0 0 20.8 16a4.812 4.812 0 0 0-1.406-3.395A4.812 4.812 0 0 0 16 11.2Zm0 0"/>
</svg>
