<?xml version="1.0" encoding="UTF-8"?>
<svg xmlns="http://www.w3.org/2000/svg" xmlns:xlink="http://www.w3.org/1999/xlink" width="px" height="36px" viewBox="0 0 34 36" version="1.1">
<g id="surface1">
<path  style="fill:#ffffff" d="M 12.300781 22.835938 L 12.355469 22.863281 L 12.457031 22.910156 C 12.585938 22.972656 12.714844 23.03125 12.847656 23.089844 L 12.929688 23.128906 C 13.078125 23.195312 13.230469 23.257812 13.382812 23.316406 L 13.492188 23.359375 C 13.636719 23.414062 13.777344 23.46875 13.921875 23.519531 L 13.976562 23.539062 C 14.132812 23.59375 14.292969 23.644531 14.453125 23.695312 L 14.570312 23.726562 C 14.734375 23.777344 14.894531 23.835938 15.0625 23.867188 C 25.777344 25.816406 28.890625 17.4375 28.890625 17.4375 C 26.277344 20.839844 21.636719 21.734375 17.242188 20.738281 C 17.074219 20.699219 16.914062 20.648438 16.75 20.597656 L 16.628906 20.5625 C 16.46875 20.515625 16.3125 20.460938 16.15625 20.410156 L 16.089844 20.386719 C 15.953125 20.335938 15.8125 20.285156 15.675781 20.230469 L 15.558594 20.1875 C 15.40625 20.125 15.257812 20.0625 15.109375 20 L 15.019531 19.960938 C 14.890625 19.902344 14.765625 19.84375 14.640625 19.78125 L 14.527344 19.730469 C 14.429688 19.683594 14.332031 19.632812 14.234375 19.582031 L 14.039062 19.480469 C 13.921875 19.414062 13.804688 19.347656 13.6875 19.28125 L 13.570312 19.214844 C 13.414062 19.125 13.261719 19.03125 13.113281 18.933594 L 12.988281 18.851562 C 12.878906 18.78125 12.769531 18.710938 12.660156 18.636719 L 12.558594 18.5625 C 12.453125 18.488281 12.351562 18.414062 12.25 18.339844 L 12.113281 18.238281 C 12.019531 18.167969 11.925781 18.09375 11.835938 18.019531 L 11.710938 17.921875 C 11.59375 17.824219 11.476562 17.730469 11.363281 17.628906 L 11.328125 17.597656 C 11.203125 17.492188 11.082031 17.378906 10.960938 17.269531 L 10.859375 17.167969 C 10.769531 17.085938 10.683594 17 10.597656 16.914062 L 10.496094 16.8125 C 10.386719 16.699219 10.277344 16.585938 10.175781 16.472656 L 10.15625 16.457031 C 10.046875 16.335938 9.9375 16.210938 9.832031 16.085938 L 9.746094 15.984375 C 9.667969 15.890625 9.589844 15.792969 9.511719 15.695312 L 9.425781 15.589844 C 9.335938 15.46875 9.246094 15.351562 9.15625 15.230469 C 6.714844 11.90625 5.839844 7.320312 7.789062 3.554688 L 6.0625 5.746094 C 3.84375 8.921875 4.121094 13.058594 5.8125 16.4375 L 5.9375 16.679688 L 6.015625 16.832031 L 6.066406 16.917969 L 6.152344 17.078125 C 6.207031 17.167969 6.261719 17.261719 6.316406 17.351562 L 6.40625 17.503906 C 6.46875 17.601562 6.53125 17.699219 6.59375 17.796875 L 6.675781 17.921875 C 6.761719 18.050781 6.855469 18.183594 6.945312 18.3125 L 6.953125 18.324219 L 7 18.382812 C 7.082031 18.496094 7.164062 18.605469 7.246094 18.714844 L 7.339844 18.832031 C 7.414062 18.925781 7.492188 19.019531 7.570312 19.113281 L 7.65625 19.214844 C 7.761719 19.339844 7.867188 19.460938 7.976562 19.578125 L 7.980469 19.585938 L 7.992188 19.597656 C 8.101562 19.714844 8.207031 19.828125 8.316406 19.941406 L 8.421875 20.042969 C 8.507812 20.128906 8.59375 20.214844 8.679688 20.296875 L 8.785156 20.398438 C 8.902344 20.507812 9.019531 20.613281 9.140625 20.71875 L 9.144531 20.726562 L 9.207031 20.777344 C 9.3125 20.867188 9.421875 20.960938 9.53125 21.050781 L 9.664062 21.15625 C 9.75 21.226562 9.839844 21.296875 9.929688 21.363281 L 10.074219 21.472656 C 10.175781 21.546875 10.273438 21.617188 10.375 21.6875 L 10.484375 21.765625 L 10.515625 21.789062 C 10.613281 21.855469 10.710938 21.917969 10.808594 21.980469 L 10.933594 22.066406 C 11.085938 22.160156 11.238281 22.253906 11.394531 22.34375 L 11.519531 22.417969 C 11.632812 22.480469 11.746094 22.546875 11.863281 22.609375 L 12.050781 22.707031 Z M 13.382812 12.066406 C 13.621094 12.410156 13.886719 12.816406 14.207031 13.09375 C 14.320312 13.222656 14.441406 13.34375 14.566406 13.46875 L 14.660156 13.558594 C 14.78125 13.675781 14.902344 13.789062 15.027344 13.902344 L 15.042969 13.914062 L 15.046875 13.917969 C 15.183594 14.039062 15.328125 14.15625 15.476562 14.273438 L 15.574219 14.347656 C 15.71875 14.460938 15.867188 14.570312 16.019531 14.675781 L 16.035156 14.683594 L 16.238281 14.820312 L 16.335938 14.882812 C 16.445312 14.953125 16.554688 15.023438 16.667969 15.085938 L 16.714844 15.113281 C 16.8125 15.167969 16.910156 15.226562 17.007812 15.277344 L 17.113281 15.332031 L 17.320312 15.4375 L 17.351562 15.453125 C 17.492188 15.523438 17.632812 15.589844 17.78125 15.652344 L 17.875 15.691406 C 17.992188 15.742188 18.109375 15.789062 18.226562 15.835938 L 18.375 15.890625 C 18.484375 15.929688 18.589844 15.964844 18.699219 16 L 18.847656 16.046875 C 19 16.097656 19.152344 16.15625 19.3125 16.183594 C 27.585938 17.550781 29.496094 11.191406 29.496094 11.191406 C 27.773438 13.667969 24.4375 14.847656 20.882812 13.925781 C 20.722656 13.886719 20.566406 13.839844 20.414062 13.789062 L 20.273438 13.746094 C 20.164062 13.710938 20.054688 13.671875 19.945312 13.632812 L 19.796875 13.578125 C 19.679688 13.53125 19.5625 13.484375 19.445312 13.4375 L 19.347656 13.394531 C 19.203125 13.332031 19.058594 13.265625 18.917969 13.195312 L 18.699219 13.085938 L 18.574219 13.019531 C 18.484375 12.972656 18.390625 12.917969 18.300781 12.867188 L 18.238281 12.828125 C 18.125 12.765625 18.015625 12.695312 17.90625 12.628906 L 17.804688 12.5625 L 17.589844 12.417969 C 17.4375 12.3125 17.289062 12.207031 17.144531 12.09375 L 17.042969 12.011719 C 15.484375 10.785156 14.25 9.109375 13.664062 7.207031 C 13.050781 5.234375 13.183594 3.015625 14.246094 1.21875 L 12.9375 3.066406 C 11.335938 5.367188 11.421875 8.449219 12.671875 10.886719 C 12.882812 11.292969 13.117188 11.6875 13.382812 12.066406 Z M 22.101562 9.21875 L 22.304688 9.289062 L 22.394531 9.316406 C 22.492188 9.347656 22.589844 9.382812 22.691406 9.402344 C 27.257812 10.285156 28.496094 7.0625 28.828125 6.585938 C 27.742188 8.148438 25.917969 8.523438 23.679688 7.980469 C 23.496094 7.933594 23.316406 7.878906 23.140625 7.8125 C 22.921875 7.734375 22.707031 7.648438 22.496094 7.546875 C 22.097656 7.355469 21.722656 7.125 21.367188 6.859375 C 19.367188 5.34375 18.121094 2.449219 19.429688 0.0898438 L 18.722656 1.0625 C 17.777344 2.453125 17.683594 4.175781 18.339844 5.707031 C 19.03125 7.335938 20.449219 8.613281 22.101562 9.21875 Z M 17.691406 27.890625 L 16.453125 27.890625 C 16.417969 27.890625 16.382812 27.90625 16.355469 27.925781 C 16.328125 27.949219 16.308594 27.980469 16.300781 28.011719 L 15.863281 30.042969 L 15.421875 32.074219 C 15.414062 32.109375 15.394531 32.140625 15.367188 32.160156 C 15.339844 32.183594 15.304688 32.195312 15.269531 32.199219 L 14.394531 32.199219 C 13.527344 32.199219 13.628906 31.597656 13.804688 30.777344 L 13.808594 30.753906 L 13.828125 30.648438 L 13.832031 30.628906 L 13.871094 30.417969 L 13.914062 30.195312 L 13.960938 29.964844 L 14.359375 28.011719 C 14.363281 28 14.363281 27.984375 14.359375 27.96875 C 14.359375 27.953125 14.351562 27.9375 14.339844 27.925781 C 14.332031 27.914062 14.320312 27.90625 14.304688 27.898438 C 14.289062 27.894531 14.277344 27.890625 14.261719 27.890625 L 12.988281 27.890625 C 12.953125 27.890625 12.921875 27.90625 12.894531 27.925781 C 12.867188 27.949219 12.847656 27.980469 12.839844 28.011719 L 12.566406 29.308594 L 12.292969 30.601562 L 12.289062 30.605469 L 12.265625 30.726562 C 11.949219 32.160156 12.035156 33.53125 13.746094 33.574219 L 16.480469 33.574219 C 16.515625 33.570312 16.550781 33.558594 16.578125 33.539062 C 16.605469 33.515625 16.625 33.484375 16.632812 33.453125 L 17.210938 30.734375 L 17.789062 28.011719 C 17.804688 27.945312 17.761719 27.890625 17.691406 27.890625 Z M 4.425781 27.875 L 3.066406 27.875 C 3.03125 27.878906 2.996094 27.890625 2.96875 27.914062 C 2.941406 27.933594 2.921875 27.964844 2.914062 28 L 2.785156 28.566406 L 2.65625 29.136719 C 2.640625 29.203125 2.683594 29.257812 2.753906 29.257812 L 4.125 29.257812 C 4.160156 29.257812 4.191406 29.242188 4.21875 29.222656 C 4.246094 29.199219 4.265625 29.167969 4.277344 29.136719 L 4.402344 28.566406 L 4.523438 28 C 4.539062 27.933594 4.496094 27.875 4.425781 27.875 Z M 4.03125 29.644531 L 2.660156 29.644531 C 2.625 29.648438 2.59375 29.660156 2.566406 29.683594 C 2.539062 29.703125 2.519531 29.734375 2.507812 29.769531 L 2.125 31.472656 L 2.070312 31.714844 L 1.886719 32.585938 L 1.699219 33.453125 C 1.6875 33.519531 1.65625 33.628906 1.632812 33.695312 C 1.632812 33.695312 1.378906 34.453125 0.949219 34.445312 L 0.894531 34.445312 L 0.519531 34.4375 C 0.488281 34.4375 0.453125 34.449219 0.425781 34.472656 C 0.398438 34.492188 0.378906 34.523438 0.367188 34.558594 L 0.226562 35.152344 L 0.0820312 35.75 C 0.0664062 35.816406 0.109375 35.871094 0.179688 35.875 C 0.421875 35.875 0.96875 35.882812 1.300781 35.882812 C 2.375 35.882812 2.945312 35.289062 3.308594 33.574219 L 3.730469 31.609375 L 4.132812 29.765625 C 4.144531 29.699219 4.101562 29.644531 4.03125 29.644531 Z M 29.273438 29.183594 L 29.214844 28.949219 L 29.160156 28.710938 L 29.132812 28.589844 C 29.019531 28.15625 28.695312 27.90625 27.984375 27.90625 L 24.714844 27.90625 C 24.679688 27.90625 24.648438 27.917969 24.621094 27.941406 C 24.59375 27.964844 24.574219 27.992188 24.566406 28.027344 L 24.515625 28.265625 L 24.453125 28.546875 L 24.4375 28.628906 L 23.921875 31.039062 L 23.433594 33.328125 C 23.417969 33.394531 23.414062 33.480469 23.421875 33.511719 C 23.429688 33.546875 23.5625 33.574219 23.632812 33.574219 L 24.664062 33.574219 C 24.734375 33.574219 24.820312 33.5625 24.855469 33.546875 C 24.894531 33.53125 24.949219 33.394531 24.964844 33.328125 L 25.332031 31.515625 L 25.332031 31.511719 L 25.355469 31.390625 L 25.578125 30.351562 L 25.777344 29.429688 C 25.785156 29.394531 25.804688 29.367188 25.832031 29.34375 C 25.859375 29.320312 25.890625 29.308594 25.925781 29.308594 L 29.175781 29.304688 C 29.246094 29.308594 29.289062 29.253906 29.273438 29.183594 Z M 33.457031 27.066406 L 32.167969 27.066406 C 32.128906 27.070312 32.089844 27.078125 32.058594 27.097656 C 32.023438 27.113281 31.996094 27.140625 31.972656 27.171875 L 29.671875 30.535156 C 29.632812 30.59375 29.589844 30.585938 29.574219 30.515625 L 29.402344 29.777344 C 29.394531 29.742188 29.375 29.710938 29.347656 29.691406 C 29.320312 29.667969 29.285156 29.65625 29.25 29.65625 L 27.773438 29.65625 C 27.703125 29.65625 27.660156 29.707031 27.679688 29.773438 L 28.34375 32.09375 C 28.363281 32.160156 28.363281 32.265625 28.347656 32.332031 L 28.058594 33.457031 C 28.039062 33.523438 28.082031 33.578125 28.152344 33.578125 L 29.613281 33.578125 C 29.648438 33.574219 29.683594 33.5625 29.710938 33.539062 C 29.738281 33.519531 29.757812 33.488281 29.769531 33.457031 L 30.058594 32.332031 C 30.082031 32.253906 30.117188 32.179688 30.164062 32.113281 L 33.898438 27.164062 C 33.941406 27.109375 33.917969 27.0625 33.851562 27.0625 Z M 21.707031 29.96875 C 21.703125 30.003906 21.6875 30.035156 21.660156 30.058594 C 21.632812 30.082031 21.597656 30.097656 21.5625 30.097656 L 19.6875 30.097656 C 19.621094 30.097656 19.589844 30.054688 19.597656 30 L 19.601562 29.996094 L 19.597656 29.996094 L 19.601562 29.988281 L 19.609375 29.957031 C 19.789062 29.480469 20.152344 29.167969 20.839844 29.167969 C 21.609375 29.167969 21.761719 29.546875 21.707031 29.96875 Z M 21.15625 27.808594 C 18.75 27.808594 18.179688 29.265625 17.859375 30.738281 C 17.542969 32.238281 17.566406 33.644531 20.058594 33.644531 L 20.453125 33.644531 L 20.753906 33.640625 L 20.757812 33.640625 C 21.414062 33.640625 22.074219 33.632812 22.34375 33.632812 C 22.378906 33.628906 22.410156 33.617188 22.4375 33.59375 C 22.464844 33.574219 22.484375 33.542969 22.492188 33.507812 L 22.59375 33.015625 L 22.613281 32.921875 L 22.730469 32.335938 C 22.734375 32.320312 22.738281 32.304688 22.734375 32.289062 C 22.730469 32.273438 22.722656 32.261719 22.714844 32.25 C 22.703125 32.234375 22.691406 32.226562 22.675781 32.21875 C 22.664062 32.214844 22.648438 32.210938 22.632812 32.210938 L 20.394531 32.210938 C 19.503906 32.210938 19.238281 31.976562 19.335938 31.28125 L 22.917969 31.28125 C 22.945312 31.28125 22.972656 31.269531 22.996094 31.253906 C 23.019531 31.238281 23.035156 31.214844 23.046875 31.1875 L 23.054688 31.15625 C 23.585938 29.15625 23.433594 27.808594 21.15625 27.808594 Z M 9.78125 29.960938 L 9.75 30.082031 L 9.476562 31.039062 L 9.207031 31.996094 C 9.195312 32.027344 9.175781 32.058594 9.148438 32.078125 C 9.117188 32.101562 9.085938 32.113281 9.050781 32.113281 L 7.617188 32.113281 C 6.535156 32.113281 6.269531 31.265625 6.535156 30.015625 C 6.796875 28.738281 7.316406 27.945312 8.382812 27.863281 C 9.84375 27.753906 10.136719 28.777344 9.78125 29.960938 Z M 10.765625 32.042969 C 10.765625 32.042969 11.4375 30.40625 11.589844 29.460938 C 11.800781 28.199219 11.167969 26.363281 8.71875 26.363281 C 6.285156 26.363281 5.226562 28.113281 4.824219 30.015625 C 4.417969 31.933594 4.949219 33.613281 7.367188 33.601562 L 9.277344 33.59375 L 11.0625 33.589844 C 11.097656 33.585938 11.132812 33.574219 11.160156 33.550781 C 11.1875 33.53125 11.207031 33.5 11.21875 33.46875 L 11.53125 32.28125 C 11.546875 32.214844 11.503906 32.160156 11.4375 32.160156 L 11.140625 32.160156 L 10.839844 32.15625 C 10.78125 32.15625 10.75 32.117188 10.757812 32.070312 Z M 22.816406 30.945312 C 22.816406 30.957031 22.8125 30.96875 22.808594 30.976562 C 22.804688 30.988281 22.800781 30.996094 22.792969 31.003906 C 22.785156 31.011719 22.777344 31.019531 22.765625 31.023438 C 22.757812 31.027344 22.746094 31.027344 22.734375 31.027344 C 22.722656 31.027344 22.714844 31.027344 22.703125 31.023438 C 22.691406 31.019531 22.683594 31.011719 22.675781 31.003906 C 22.667969 30.996094 22.664062 30.988281 22.660156 30.976562 C 22.65625 30.96875 22.652344 30.957031 22.652344 30.945312 C 22.652344 30.925781 22.660156 30.902344 22.675781 30.886719 C 22.691406 30.875 22.710938 30.863281 22.734375 30.863281 C 22.757812 30.863281 22.777344 30.875 22.792969 30.886719 C 22.808594 30.902344 22.816406 30.925781 22.816406 30.945312 Z M 22.816406 30.945312 "/>
</g>
</svg>
