<?xml version="1.0" encoding="UTF-8"?>
<svg xmlns="http://www.w3.org/2000/svg" xmlns:xlink="http://www.w3.org/1999/xlink" width="px" height="36px" viewBox="0 0 36 36" version="1.1">
<g id="surface1">
<path style="fill:#ffffff" d="M 0 0 L 36 0 L 36 36 L 0 36 Z M 33.050781 27.417969 C 32.789062 25.769531 31.714844 24.390625 28.546875 23.105469 C 27.445312 22.589844 26.214844 22.226562 25.851562 21.394531 C 25.714844 20.898438 25.691406 20.632812 25.78125 20.335938 C 26.007812 19.363281 27.152344 19.078125 28.054688 19.347656 C 28.640625 19.527344 29.179688 19.972656 29.519531 20.695312 C 31.070312 19.683594 31.070312 19.683594 32.148438 19.007812 C 31.746094 18.382812 31.546875 18.105469 31.273438 17.84375 C 30.328125 16.78125 29.070312 16.242188 27.023438 16.289062 L 25.960938 16.425781 C 24.949219 16.671875 23.984375 17.210938 23.398438 17.929688 C 21.691406 19.867188 22.183594 23.242188 24.25 24.640625 C 26.296875 26.167969 29.289062 26.503906 29.675781 27.945312 C 30.035156 29.703125 28.371094 30.265625 26.722656 30.0625 C 25.511719 29.792969 24.835938 29.183594 24.09375 28.058594 L 21.351562 29.632812 C 21.660156 30.355469 22.023438 30.664062 22.5625 31.296875 C 25.171875 33.929688 31.699219 33.792969 32.867188 29.792969 C 32.910156 29.65625 33.226562 28.730469 32.980469 27.320312 Z M 19.574219 16.546875 L 16.207031 16.546875 C 16.207031 19.453125 16.1875 22.339844 16.1875 25.253906 C 16.1875 27.101562 16.28125 28.800781 15.984375 29.320312 C 15.484375 30.351562 14.214844 30.222656 13.632812 30.042969 C 13.042969 29.75 12.738281 29.34375 12.390625 28.757812 C 12.292969 28.601562 12.222656 28.464844 12.199219 28.464844 L 9.460938 30.152344 C 9.917969 31.097656 10.585938 31.910156 11.449219 32.425781 C 12.734375 33.195312 14.457031 33.441406 16.257812 33.035156 C 17.433594 32.695312 18.445312 32 18.972656 30.921875 C 19.738281 29.527344 19.574219 27.816406 19.570312 25.898438 C 19.585938 22.816406 19.570312 19.734375 19.570312 16.628906 Z M 19.574219 16.546875 "/>
</g>
</svg>
