<?xml version="1.0" encoding="UTF-8"?>
<svg xmlns="http://www.w3.org/2000/svg" xmlns:xlink="http://www.w3.org/1999/xlink" width="px" height="36px" viewBox="0 0 46 36" version="1.1">
<g id="surface1">
<path style="fill:#ffffff" d="M 21.695312 26.128906 C 21.671875 26.171875 21.652344 26.207031 21.695312 26.128906 Z M 39.601562 19.867188 C 38.152344 19.867188 36.726562 20.199219 35.429688 20.839844 C 35.007812 19.980469 34.570312 19.234375 34.496094 18.671875 C 34.410156 18.015625 34.316406 17.628906 34.417969 16.847656 C 34.519531 16.070312 34.972656 14.96875 34.964844 14.890625 C 34.957031 14.8125 34.863281 14.414062 33.9375 14.410156 C 33.007812 14.402344 32.210938 14.589844 32.117188 14.832031 C 31.953125 15.28125 31.828125 15.742188 31.738281 16.207031 C 31.570312 17.050781 29.882812 20.0625 28.929688 21.628906 C 28.613281 21.019531 28.347656 20.476562 28.289062 20.046875 C 28.203125 19.390625 28.109375 19.003906 28.210938 18.226562 C 28.308594 17.445312 28.761719 16.34375 28.753906 16.265625 C 28.75 16.1875 28.65625 15.792969 27.730469 15.785156 C 26.804688 15.777344 26.003906 15.964844 25.910156 16.207031 C 25.816406 16.453125 25.71875 17.03125 25.53125 17.582031 C 25.34375 18.136719 23.09375 23.148438 22.503906 24.453125 C 22.203125 25.113281 21.945312 25.648438 21.757812 26.007812 C 21.730469 26.066406 21.707031 26.101562 21.691406 26.128906 C 21.714844 26.09375 21.730469 26.058594 21.730469 26.074219 C 21.570312 26.382812 21.476562 26.554688 21.476562 26.554688 L 21.476562 26.5625 C 21.355469 26.792969 21.21875 27 21.152344 27 C 21.109375 27 21.019531 26.398438 21.175781 25.570312 C 21.511719 23.828125 22.3125 21.117188 22.304688 21.027344 C 22.296875 20.976562 22.457031 20.507812 21.78125 20.253906 C 21.125 20.015625 20.886719 20.414062 20.832031 20.414062 C 20.773438 20.414062 20.730469 20.558594 20.730469 20.558594 C 20.730469 20.558594 21.457031 17.503906 19.335938 17.503906 C 18.011719 17.503906 16.171875 18.960938 15.269531 20.277344 C 14.703125 20.585938 13.472656 21.253906 12.179688 21.96875 L 10.691406 22.789062 C 10.65625 22.753906 10.625 22.71875 10.589844 22.679688 C 8.015625 19.929688 3.265625 17.988281 3.46875 14.292969 C 3.539062 12.945312 4.007812 9.410156 12.601562 5.121094 C 19.644531 1.605469 25.277344 2.570312 26.246094 4.71875 C 27.640625 7.777344 23.234375 13.472656 15.921875 14.292969 C 13.132812 14.601562 11.667969 13.523438 11.300781 13.121094 C 10.921875 12.695312 10.863281 12.671875 10.71875 12.753906 C 10.480469 12.882812 10.632812 13.257812 10.71875 13.480469 C 10.933594 14.046875 11.832031 15.054688 13.363281 15.5625 C 14.707031 16 17.976562 16.246094 21.929688 14.710938 C 26.371094 12.996094 29.828125 8.222656 28.8125 4.226562 C 27.78125 0.167969 21.058594 -1.164062 14.703125 1.097656 C 10.914062 2.441406 6.820312 4.558594 3.875 7.316406 C 0.375 10.601562 -0.183594 13.457031 0.0429688 14.652344 C 0.863281 18.894531 6.699219 21.660156 9.035156 23.703125 L 8.710938 23.882812 C 7.539062 24.46875 3.089844 26.800781 1.976562 29.261719 C 0.71875 32.054688 2.183594 34.058594 3.148438 34.332031 C 6.152344 35.167969 9.226562 33.660156 10.878906 31.191406 C 12.53125 28.722656 12.332031 25.496094 11.570312 24.027344 C 11.5625 24.007812 11.546875 23.992188 11.539062 23.96875 C 12.402344 23.457031 13.273438 22.960938 14.148438 22.472656 C 13.863281 23.25 13.652344 24.1875 13.546875 25.539062 C 13.417969 27.125 14.070312 29.175781 14.917969 29.980469 C 15.292969 30.335938 15.742188 30.34375 16.023438 30.34375 C 17.015625 30.34375 17.460938 29.519531 17.957031 28.542969 C 18.570312 27.347656 19.109375 25.957031 19.109375 25.957031 C 19.109375 25.957031 18.433594 29.714844 20.28125 29.714844 C 20.957031 29.714844 21.632812 28.84375 21.933594 28.398438 L 21.933594 28.40625 C 21.933594 28.40625 21.949219 28.375 21.984375 28.320312 C 22.054688 28.210938 22.089844 28.144531 22.089844 28.144531 L 22.089844 28.125 C 22.363281 27.65625 22.960938 26.582031 23.859375 24.8125 C 25.023438 22.523438 26.136719 19.664062 26.136719 19.664062 C 26.246094 20.292969 26.394531 20.914062 26.582031 21.523438 C 26.785156 22.207031 27.207031 22.953125 27.546875 23.683594 C 27.273438 24.054688 27.105469 24.273438 27.105469 24.273438 C 27.105469 24.277344 27.109375 24.28125 27.113281 24.285156 C 26.898438 24.574219 26.652344 24.882812 26.402344 25.1875 C 25.484375 26.28125 24.390625 27.535156 24.246094 27.894531 C 24.074219 28.320312 24.117188 28.636719 24.449219 28.878906 C 24.691406 29.066406 25.125 29.097656 25.574219 29.0625 C 26.402344 29.003906 26.984375 28.800781 27.265625 28.671875 C 27.78125 28.484375 28.269531 28.230469 28.71875 27.910156 C 29.617188 27.246094 30.160156 26.296875 30.109375 25.042969 C 30.082031 24.351562 29.859375 23.660156 29.585938 23.011719 C 29.664062 22.898438 29.75 22.773438 29.832031 22.652344 C 30.765625 21.253906 31.609375 19.796875 32.355469 18.289062 C 32.460938 18.914062 32.609375 19.535156 32.800781 20.144531 C 32.972656 20.730469 33.308594 21.371094 33.617188 21.996094 C 32.28125 23.082031 31.457031 24.34375 31.167969 25.171875 C 30.636719 26.703125 31.054688 27.394531 31.835938 27.554688 C 32.191406 27.625 32.691406 27.460938 33.066406 27.300781 C 33.621094 27.117188 34.144531 26.847656 34.617188 26.503906 C 35.515625 25.839844 36.386719 24.910156 36.328125 23.652344 C 36.304688 23.082031 36.148438 22.515625 35.9375 21.96875 C 37.066406 21.492188 38.535156 21.234375 40.402344 21.449219 C 44.40625 21.917969 45.1875 24.421875 45.035156 25.464844 C 44.886719 26.511719 44.046875 27.09375 43.765625 27.265625 C 43.484375 27.4375 43.398438 27.503906 43.417969 27.632812 C 43.457031 27.820312 43.585938 27.8125 43.820312 27.769531 C 44.152344 27.710938 45.921875 26.921875 46 24.984375 C 46.113281 22.535156 43.765625 19.84375 39.601562 19.863281 Z M 8.753906 30.285156 C 7.429688 31.730469 5.578125 32.277344 4.78125 31.816406 C 3.925781 31.320312 4.261719 29.191406 5.890625 27.648438 C 6.882812 26.710938 8.164062 25.847656 9.011719 25.316406 C 9.207031 25.199219 9.484375 25.027344 9.832031 24.820312 C 9.859375 24.800781 9.886719 24.785156 9.917969 24.769531 C 9.980469 24.726562 10.054688 24.6875 10.125 24.644531 C 10.722656 26.835938 10.148438 28.765625 8.753906 30.285156 Z M 18.410156 23.703125 C 17.949219 24.835938 16.980469 27.714844 16.390625 27.5625 C 15.886719 27.433594 15.578125 25.238281 16.289062 23.078125 C 16.648438 21.992188 17.410156 20.695312 17.863281 20.191406 C 18.589844 19.375 19.386719 19.117188 19.574219 19.441406 C 19.824219 19.867188 18.699219 23 18.410156 23.703125 Z M 26.386719 27.519531 C 26.195312 27.621094 26.015625 27.683594 25.929688 27.636719 C 25.863281 27.597656 26.007812 27.460938 26.007812 27.460938 C 26.007812 27.460938 27.007812 26.390625 27.402344 25.898438 C 27.632812 25.613281 27.898438 25.273438 28.183594 24.898438 C 28.183594 24.933594 28.191406 24.972656 28.191406 25.015625 C 28.183594 26.304688 26.949219 27.175781 26.386719 27.519531 Z M 32.539062 26.117188 C 32.398438 26.015625 32.417969 25.675781 32.898438 24.625 C 33.085938 24.214844 33.519531 23.523438 34.265625 22.863281 C 34.351562 23.113281 34.398438 23.375 34.402344 23.640625 C 34.394531 25.257812 33.238281 25.863281 32.539062 26.117188 Z M 32.539062 26.117188 "/>
</g>
</svg>
