<svg xmlns="http://www.w3.org/2000/svg" width="36" height="32">
    <path style="stroke:none;fill-rule:nonzero;fill:#000;fill-opacity:1" d="M35.5.352a1.46 1.46 0 0 0-.695-.332 1.471 1.471 0 0 0-.77.078L1.61 12.789a2.27 2.27 0 0 0-1.441 2.324A2.269 2.269 0 0 0 2 17.141l8.398 1.652v9.367c0 .512.153 1.008.438 1.434.285.422.691.75 1.164.937.473.196.992.242 1.492.133.5-.105.957-.36 1.309-.727l4.05-4.203 6.43 5.625c.461.41 1.059.641 1.68.641a2.592 2.592 0 0 0 1.902-.828c.301-.328.508-.727.606-1.16l6.496-28.25a1.469 1.469 0 0 0-.04-.77 1.376 1.376 0 0 0-.425-.64Zm-9.781 5.757L11.383 16.375 3.449 14.82ZM12.96 28.16v-7.598l3.965 3.481Zm14.004 1.281L13.735 17.84 32.776 4.195Zm0 0"/>
</svg>
